<svg width="81" height="16" viewBox="0 0 81 16" fill="none" xmlns="http://www.w3.org/2000/svg">
<path d="M15.5783 3.60857H10.2038V15.7614H5.37453V3.60857H0V0.298229H15.5783V3.60857Z" fill="#EEC946"/>
<path d="M25.8454 9.46878C24.8796 9.50854 24.0851 9.58807 23.4619 9.70736C22.8388 9.82665 22.3455 9.97577 21.982 10.1547C21.6185 10.3336 21.3641 10.5374 21.2187 10.7661C21.0836 10.9947 21.0161 11.2432 21.0161 11.5116C21.0161 12.0385 21.1667 12.4113 21.4679 12.63C21.7691 12.8388 22.2105 12.9431 22.7921 12.9431C23.4152 12.9431 23.9604 12.8388 24.4278 12.63C24.8951 12.4212 25.3677 12.0833 25.8454 11.616V9.46878ZM17.1527 2.44548C18.129 1.62038 19.2091 1.00901 20.393 0.61137C21.5873 0.20379 22.8648 0 24.2253 0C25.2015 0 26.0791 0.154086 26.858 0.462256C27.6473 0.760485 28.312 1.18298 28.852 1.72973C29.4025 2.26654 29.8231 2.90773 30.1139 3.65331C30.4047 4.39888 30.5501 5.21404 30.5501 6.09879V15.7614H28.3379C27.881 15.7614 27.5331 15.7018 27.2942 15.5825C27.0657 15.4632 26.8736 15.2147 26.7178 14.8369L26.3751 13.987C25.97 14.315 25.5806 14.6033 25.2067 14.8518C24.8328 15.1003 24.4434 15.3141 24.0383 15.493C23.6437 15.662 23.2179 15.7863 22.7609 15.8658C22.3143 15.9553 21.8158 16 21.2654 16C20.528 16 19.8582 15.9105 19.2558 15.7316C18.6534 15.5427 18.1393 15.2693 17.7135 14.9115C17.2981 14.5536 16.9762 14.1112 16.7477 13.5843C16.5192 13.0475 16.405 12.4312 16.405 11.7353C16.405 11.1786 16.5504 10.617 16.8412 10.0503C17.1319 9.47375 17.6356 8.95185 18.3522 8.48462C19.0689 8.00745 20.0347 7.60982 21.2498 7.29171C22.4649 6.97359 23.9968 6.79466 25.8454 6.75489V6.09879C25.8454 5.19416 25.6481 4.54303 25.2535 4.14539C24.8692 3.73781 24.3187 3.53402 23.6021 3.53402C23.0309 3.53402 22.5636 3.59366 22.2001 3.71295C21.8366 3.83225 21.5095 3.96645 21.2187 4.11556C20.9382 4.26468 20.663 4.39888 20.393 4.51817C20.123 4.63747 19.801 4.69711 19.4272 4.69711C19.0948 4.69711 18.8144 4.61758 18.5859 4.45853C18.3574 4.29947 18.1705 4.11059 18.0251 3.89189L17.1527 2.44548Z" fill="#EEC946"/>
<path d="M43.1398 1.46132C43.3787 1.11339 43.6954 0.835042 44.0901 0.626281C44.4951 0.40758 44.9157 0.298229 45.3519 0.298229H49.1686L45.7725 5.91985C45.5129 6.33737 45.2481 6.67536 44.978 6.93383C44.708 7.1923 44.3809 7.39112 43.9966 7.53029C44.5263 7.69929 44.9573 7.93787 45.2896 8.24604C45.622 8.55421 45.9179 8.94191 46.1776 9.40913L49.5581 15.7614H46.2243C45.7985 15.7614 45.4246 15.7316 45.1027 15.6719C44.7911 15.6024 44.5107 15.503 44.2614 15.3737C44.0122 15.2445 43.7941 15.0854 43.6071 14.8966C43.4202 14.7077 43.2488 14.489 43.0931 14.2404L41.3795 10.3486C41.2237 10.0006 40.9952 9.74713 40.694 9.58807C40.4032 9.41907 40.0657 9.33458 39.6814 9.33458H38.4663V15.7614H33.637V0.298229H38.4663V6.42684H39.4633C39.8995 6.42684 40.2215 6.36222 40.4292 6.23299C40.6473 6.09382 40.8394 5.86517 41.0056 5.54706L43.1398 1.46132Z" fill="#EEC946"/>
<path d="M62.6074 3.96645C62.462 4.13545 62.3218 4.26965 62.1867 4.36906C62.0517 4.46847 61.8596 4.51817 61.6103 4.51817C61.3715 4.51817 61.1534 4.4635 60.9561 4.35415C60.7691 4.2448 60.5562 4.1255 60.3173 3.99627C60.0785 3.8571 59.7981 3.73284 59.4761 3.62349C59.1542 3.51414 58.7543 3.45946 58.2766 3.45946C57.6846 3.45946 57.1705 3.56384 56.7343 3.7726C56.3085 3.98136 55.9554 4.27959 55.675 4.66729C55.3946 5.05499 55.1869 5.53215 55.0519 6.09879C54.9169 6.65548 54.8493 7.28674 54.8493 7.99254C54.8493 9.47375 55.1453 10.612 55.7373 11.4073C56.3397 12.2025 57.1653 12.6002 58.2143 12.6002C58.7751 12.6002 59.2165 12.5356 59.5384 12.4063C59.8708 12.2672 60.1512 12.118 60.3796 11.959C60.6081 11.79 60.8158 11.6359 61.0028 11.4967C61.2001 11.3576 61.4442 11.288 61.735 11.288C62.1192 11.288 62.41 11.4222 62.6074 11.6906L64.0094 13.3458C63.5109 13.8925 62.9864 14.3399 62.436 14.6878C61.8856 15.0258 61.3195 15.2942 60.7379 15.493C60.1667 15.6819 59.5904 15.8111 59.0088 15.8807C58.4272 15.9602 57.8612 16 57.3107 16C56.3241 16 55.379 15.8211 54.4755 15.4632C53.5823 15.1053 52.793 14.5884 52.1076 13.9124C51.4325 13.2265 50.8925 12.3865 50.4874 11.3924C50.0928 10.3983 49.8954 9.26499 49.8954 7.99254C49.8954 6.87916 50.0668 5.84032 50.4095 4.87605C50.7626 3.90183 51.2767 3.06182 51.9518 2.35601C52.6372 1.64026 53.4785 1.0786 54.4755 0.671016C55.4829 0.263435 56.646 0.0596453 57.965 0.0596453C59.232 0.0596453 60.3433 0.253495 61.2988 0.641193C62.2542 1.02889 63.1162 1.59553 63.8848 2.3411L62.6074 3.96645Z" fill="#EEC946"/>
<path d="M81 0.298229V15.7614H76.1707V7.88816C76.1707 7.6297 76.1863 7.35135 76.2175 7.05312C76.2486 6.74495 76.2902 6.43181 76.3421 6.1137C76.0928 6.65051 75.828 7.10283 75.5476 7.47064C75.5268 7.49052 75.4385 7.60982 75.2828 7.82852C75.1374 8.04722 74.9452 8.33054 74.7064 8.67847C74.4779 9.01646 74.213 9.39919 73.9119 9.82665C73.6211 10.2541 73.3199 10.6915 73.0083 11.1389C72.2813 12.1827 71.4661 13.3607 70.5625 14.6729C70.4691 14.8021 70.36 14.9363 70.2354 15.0755C70.1211 15.2047 69.9913 15.324 69.8459 15.4334C69.7005 15.5328 69.5447 15.6173 69.3786 15.6869C69.2124 15.7465 69.0358 15.7763 68.8489 15.7763H65.889V0.313141H70.7183V8.18639C70.7183 8.43492 70.7027 8.71327 70.6716 9.02144C70.6404 9.32961 70.5989 9.64275 70.547 9.96086C70.7962 9.42404 71.061 8.97173 71.3414 8.60391C71.3518 8.58403 71.4349 8.46474 71.5907 8.24604C71.7465 8.02734 71.9386 7.74899 72.1671 7.411C72.406 7.06306 72.6708 6.67536 72.9616 6.2479C73.2628 5.82044 73.5691 5.38304 73.8807 4.93569C74.6077 3.89189 75.423 2.71389 76.3265 1.40168C76.42 1.27244 76.5238 1.14321 76.6381 1.01398C76.7627 0.874806 76.8977 0.755514 77.0431 0.656105C77.1885 0.546754 77.3443 0.462255 77.5105 0.402609C77.6766 0.333022 77.8532 0.298229 78.0401 0.298229H81Z" fill="#EEC946"/>
</svg>
