<svg width="159" height="28" viewBox="0 0 159 28" fill="none" xmlns="http://www.w3.org/2000/svg">
<path d="M16.0948 18.7913V3.91096H11.1212C10.9976 5.87423 10.838 7.63495 10.6423 9.1931C10.4467 10.7513 10.2201 12.1328 9.96271 13.3378C9.70527 14.5428 9.41695 15.5971 9.09773 16.5008C8.78881 17.3942 8.45414 18.1577 8.09373 18.7913H16.0948ZM24.6828 18.7913V26.5665C24.6828 27.0028 24.5283 27.3508 24.2194 27.6105C23.9208 27.8702 23.5295 28 23.0455 28H19.8945V22.7023H4.78828V26.5665C4.78828 27.0028 4.63382 27.3508 4.3249 27.6105C4.02627 27.8702 3.63497 28 3.151 28H0V18.7913H2.53315C2.79059 18.6355 3.05317 18.3914 3.3209 18.059C3.58863 17.7162 3.84607 17.2436 4.0932 16.6411C4.35064 16.0386 4.59263 15.2751 4.81917 14.3506C5.04571 13.4261 5.25166 12.2938 5.43701 10.9538C5.62236 9.6138 5.77682 8.04526 5.90039 6.24819C6.03426 4.44073 6.13208 2.358 6.19387 0H21.3464V18.7913H24.6828Z" fill="black"/>
<path d="M41.6993 6.54424V22.7023H36.911V14.4752C36.911 14.2052 36.9265 13.9143 36.9573 13.6027C36.9882 13.2807 37.0294 12.9534 37.0809 12.621C36.8338 13.182 36.5712 13.6546 36.2932 14.039C36.2726 14.0597 36.185 14.1844 36.0306 14.4129C35.8864 14.6414 35.6959 14.9375 35.4591 15.3011C35.2325 15.6542 34.9699 16.0542 34.6713 16.5008C34.383 16.9475 34.0844 17.4046 33.7755 17.872C33.0546 18.9627 32.2463 20.1937 31.3504 21.5648C31.2577 21.6999 31.1496 21.8401 31.0261 21.9855C30.9128 22.1206 30.7841 22.2452 30.6399 22.3595C30.4957 22.4634 30.3413 22.5517 30.1765 22.6244C30.0118 22.6867 29.8367 22.7179 29.6514 22.7179H26.7166V6.55982H31.5049V14.7869C31.5049 15.0466 31.4894 15.3374 31.4585 15.6594C31.4277 15.9815 31.3865 16.3087 31.335 16.6411C31.5821 16.0801 31.8447 15.6075 32.1227 15.2231C32.133 15.2024 32.2154 15.0777 32.3699 14.8492C32.5243 14.6207 32.7148 14.3298 32.9414 13.9766C33.1782 13.6131 33.4408 13.2079 33.7291 12.7613C34.0277 12.3146 34.3315 11.8575 34.6404 11.3901C35.3613 10.2994 36.1696 9.06845 37.0655 7.69727C37.1581 7.56223 37.2611 7.42719 37.3744 7.29215C37.498 7.14673 37.6318 7.02207 37.776 6.9182C37.9201 6.80393 38.0746 6.71564 38.2394 6.65331C38.4041 6.5806 38.5792 6.54424 38.7645 6.54424H41.6993Z" fill="black"/>
<path d="M56.708 10.3773C56.5639 10.5539 56.4248 10.6941 56.291 10.798C56.1571 10.9019 55.9666 10.9538 55.7195 10.9538C55.4826 10.9538 55.2664 10.8967 55.0707 10.7824C54.8854 10.6681 54.6743 10.5435 54.4375 10.4085C54.2006 10.263 53.9226 10.1332 53.6034 10.0189C53.2841 9.90466 52.8877 9.84752 52.414 9.84752C51.8271 9.84752 51.3173 9.95659 50.8849 10.1747C50.4627 10.3929 50.1126 10.7045 49.8345 11.1096C49.5565 11.5147 49.3505 12.0134 49.2167 12.6055C49.0828 13.1872 49.0159 13.8468 49.0159 14.5843C49.0159 16.1321 49.3094 17.3215 49.8963 18.1525C50.4936 18.9835 51.3122 19.399 52.3522 19.399C52.9083 19.399 53.3459 19.3315 53.6651 19.1964C53.9947 19.051 54.2727 18.8952 54.4992 18.729C54.7258 18.5524 54.9317 18.3914 55.1171 18.246C55.3127 18.1005 55.5547 18.0278 55.843 18.0278C56.224 18.0278 56.5124 18.1681 56.708 18.4485L58.0982 20.1781C57.6039 20.7494 57.0839 21.2168 56.5381 21.5804C55.9924 21.9336 55.4311 22.2141 54.8545 22.4218C54.2881 22.6192 53.7166 22.7542 53.14 22.8269C52.5633 22.91 52.0021 22.9516 51.4564 22.9516C50.4781 22.9516 49.541 22.7646 48.6452 22.3907C47.7596 22.0167 46.977 21.4765 46.2974 20.7702C45.6281 20.0534 45.0926 19.1757 44.691 18.1369C44.2997 17.0981 44.104 15.9139 44.104 14.5843C44.104 13.4209 44.2739 12.3354 44.6138 11.3278C44.9639 10.3098 45.4736 9.43202 46.1429 8.69449C46.8225 7.94658 47.6566 7.35967 48.6452 6.93378C49.644 6.50788 50.7973 6.29493 52.1051 6.29493C53.3614 6.29493 54.4632 6.49749 55.4105 6.90261C56.3579 7.30773 57.2126 7.89983 57.9746 8.67891L56.708 10.3773Z" fill="black"/>
<path d="M74.4811 22.7023H69.6928V10.0033H64.7501V22.7023H59.9618V6.54424H74.4811V22.7023Z" fill="black"/>
<path d="M87.6935 12.6834C87.6935 12.299 87.642 11.9251 87.5391 11.5615C87.4464 11.1979 87.2868 10.8759 87.0602 10.5954C86.844 10.3046 86.5557 10.0709 86.1953 9.89427C85.8349 9.71768 85.3972 9.62938 84.8823 9.62938C83.9762 9.62938 83.2657 9.89427 82.7508 10.424C82.2359 10.9434 81.8961 11.6965 81.7314 12.6834H87.6935ZM81.6696 15.488C81.824 16.8384 82.2308 17.8201 82.8898 18.4329C83.5488 19.0354 84.3984 19.3367 85.4384 19.3367C85.9945 19.3367 86.4733 19.2692 86.8749 19.1341C87.2765 18.9991 87.6317 18.8485 87.9407 18.6822C88.2599 18.516 88.5482 18.3654 88.8056 18.2304C89.0734 18.0953 89.3514 18.0278 89.6397 18.0278C90.0207 18.0278 90.3091 18.1681 90.5047 18.4485L91.8949 20.1781C91.4006 20.7494 90.8651 21.2168 90.2885 21.5804C89.7221 21.9336 89.1352 22.2141 88.5276 22.4218C87.9304 22.6192 87.328 22.7542 86.7204 22.8269C86.1232 22.91 85.5517 22.9516 85.0059 22.9516C83.8835 22.9516 82.828 22.7698 81.8395 22.4062C80.8612 22.0323 80.0014 21.4817 79.26 20.7546C78.5289 20.0275 77.9471 19.1237 77.5146 18.0434C77.0924 16.9631 76.8813 15.7062 76.8813 14.2727C76.8813 13.1924 77.0615 12.1692 77.4219 11.2031C77.7926 10.2371 78.3178 9.39047 78.9974 8.66333C79.6873 7.93619 80.5163 7.35967 81.4842 6.93378C82.4625 6.50788 83.5643 6.29493 84.7897 6.29493C85.8503 6.29493 86.8183 6.46114 87.6935 6.79354C88.5791 7.12595 89.336 7.60898 89.9641 8.24263C90.6025 8.87628 91.0968 9.65535 91.4469 10.5799C91.8073 11.494 91.9875 12.5327 91.9875 13.6962C91.9875 14.0597 91.9721 14.3558 91.9412 14.5843C91.9103 14.8128 91.8537 14.9946 91.7713 15.1297C91.6889 15.2647 91.5756 15.3582 91.4315 15.4101C91.2976 15.4621 91.1226 15.488 90.9063 15.488H81.6696Z" fill="black"/>
<path d="M108.517 10.0033H103.188V22.7023H98.3996V10.0033H93.0707V6.54424H108.517V10.0033Z" fill="black"/>
<path d="M123.825 6.54424V22.7023H119.036V16.7346C117.657 17.0566 116.39 17.2228 115.237 17.2332C114.094 17.2436 113.11 17.067 112.287 16.7034C111.463 16.3294 110.824 15.7581 110.371 14.9894C109.918 14.2103 109.692 13.1924 109.692 11.9354V6.54424H114.48V11.2187C114.48 11.7796 114.547 12.2471 114.681 12.621C114.815 12.9846 115.051 13.2599 115.391 13.4469C115.741 13.6338 116.21 13.7325 116.797 13.7429C117.384 13.7429 118.13 13.6598 119.036 13.4936V6.54424H123.825Z" fill="black"/>
<path d="M137.018 12.6834C137.018 12.299 136.967 11.9251 136.864 11.5615C136.771 11.1979 136.612 10.8759 136.385 10.5954C136.169 10.3046 135.88 10.0709 135.52 9.89427C135.16 9.71768 134.722 9.62938 134.207 9.62938C133.301 9.62938 132.59 9.89427 132.076 10.424C131.561 10.9434 131.221 11.6965 131.056 12.6834H137.018ZM130.994 15.488C131.149 16.8384 131.556 17.8201 132.215 18.4329C132.874 19.0354 133.723 19.3367 134.763 19.3367C135.319 19.3367 135.798 19.2692 136.2 19.1341C136.601 18.9991 136.957 18.8485 137.265 18.6822C137.585 18.516 137.873 18.3654 138.13 18.2304C138.398 18.0953 138.676 18.0278 138.965 18.0278C139.346 18.0278 139.634 18.1681 139.83 18.4485L141.22 20.1781C140.725 20.7494 140.19 21.2168 139.613 21.5804C139.047 21.9336 138.46 22.2141 137.852 22.4218C137.255 22.6192 136.653 22.7542 136.045 22.8269C135.448 22.91 134.876 22.9516 134.331 22.9516C133.208 22.9516 132.153 22.7698 131.164 22.4062C130.186 22.0323 129.326 21.4817 128.585 20.7546C127.854 20.0275 127.272 19.1237 126.839 18.0434C126.417 16.9631 126.206 15.7062 126.206 14.2727C126.206 13.1924 126.386 12.1692 126.747 11.2031C127.117 10.2371 127.643 9.39047 128.322 8.66333C129.012 7.93619 129.841 7.35967 130.809 6.93378C131.787 6.50788 132.889 6.29493 134.114 6.29493C135.175 6.29493 136.143 6.46114 137.018 6.79354C137.904 7.12595 138.661 7.60898 139.289 8.24263C139.927 8.87628 140.422 9.65535 140.772 10.5799C141.132 11.494 141.312 12.5327 141.312 13.6962C141.312 14.0597 141.297 14.3558 141.266 14.5843C141.235 14.8128 141.178 14.9946 141.096 15.1297C141.014 15.2647 140.9 15.3582 140.756 15.4101C140.622 15.4621 140.447 15.488 140.231 15.488H130.994Z" fill="black"/>
<path d="M148.497 18.3083C148.857 18.703 149.248 18.9835 149.671 19.1497C150.093 19.3159 150.536 19.399 150.999 19.399C151.442 19.399 151.848 19.3107 152.219 19.1341C152.59 18.9575 152.909 18.6771 153.177 18.2927C153.455 17.898 153.671 17.389 153.826 16.7657C153.98 16.1425 154.057 15.3842 154.057 14.4908C154.057 13.639 153.995 12.9223 153.872 12.3406C153.748 11.7589 153.573 11.2914 153.347 10.9382C153.131 10.5747 152.868 10.315 152.559 10.1592C152.25 10.0033 151.905 9.92543 151.524 9.92543C150.824 9.92543 150.247 10.0553 149.794 10.315C149.341 10.5747 148.909 10.9538 148.497 11.4524V18.3083ZM148.203 8.53867C148.831 7.86348 149.542 7.31293 150.335 6.88703C151.138 6.45075 152.09 6.23261 153.192 6.23261C154.026 6.23261 154.799 6.41959 155.509 6.79354C156.22 7.1675 156.832 7.70766 157.347 8.41402C157.862 9.12039 158.264 9.98776 158.552 11.0161C158.851 12.0341 159 13.1924 159 14.4908C159 15.7062 158.83 16.828 158.49 17.8564C158.161 18.8848 157.692 19.7781 157.085 20.5364C156.487 21.2948 155.767 21.8868 154.922 22.3127C154.088 22.7386 153.161 22.9516 152.142 22.9516C151.308 22.9516 150.608 22.8321 150.041 22.5932C149.475 22.3543 148.96 22.0323 148.497 21.6272V27.8286H143.708V6.54424H146.674C147.271 6.54424 147.663 6.81432 147.848 7.35448L148.203 8.53867Z" fill="black"/>
</svg>
