<svg width="36" height="36" viewBox="0 0 36 36" fill="none" xmlns="http://www.w3.org/2000/svg">
<path fill-rule="evenodd" clip-rule="evenodd" d="M10.2215 10.2218C9.63575 10.8076 9.63575 11.7574 10.2215 12.3431L15.8784 18L10.2215 23.6569C9.63575 24.2426 9.63575 25.1924 10.2215 25.7782C10.8073 26.364 11.7571 26.364 12.3429 25.7782L17.9997 20.1213L23.6566 25.7782C24.2423 26.364 25.1921 26.364 25.7779 25.7782C26.3637 25.1924 26.3637 24.2426 25.7779 23.6569L20.121 18L25.7779 12.3431C26.3637 11.7574 26.3637 10.8076 25.7779 10.2218C25.1921 9.63604 24.2423 9.63604 23.6566 10.2218L17.9997 15.8787L12.3429 10.2218C11.7571 9.63604 10.8073 9.63604 10.2215 10.2218Z" fill="#101010"/>
</svg>
